<svg width="190" height="40" viewBox="0 0 190 40" fill="none" xmlns="http://www.w3.org/2000/svg">
<g clip-path="url(#clip0_12132_7788)">
<g filter="url(#filter0_dd_12132_7788)">
<path d="M35.213 11.501L35.206 6.288L25.586 0V4.022L31.931 8.2L31.936 11.402L28.988 13.398L26.977 11.931V9.446L23.7 7.204V11.727L18.505 14.915L18.495 23.335L14.822 25.403L12.937 23.926V21.488L15.169 19.959V19.939V16.166L11.152 18.854L8.081 16.856L5.276 18.693L9.659 21.694V23.536L6.5 25.674L3.277 23.492V16.23L8.062 12.991L8.066 9.875L14.203 13.827L19.361 10.394L16.216 8.559L14.159 9.947L9.677 6.983L14.731 4.036L19.11 6.603V2.775L14.736 0.211L4.794 6.008L4.787 11.223L0 14.465V25.257L4.787 28.499L4.794 33.714L14.414 40V35.981L8.069 31.803L8.064 28.601L11.012 26.605L13.023 28.072V30.557L16.3 32.798V28.275L21.569 25.088L21.628 16.667L25.178 14.599L27.063 16.076V18.514L24.831 20.043V20.063V23.837L28.848 21.148L31.919 23.146L34.724 21.309L30.34 18.306V16.466L33.5 14.329L36.723 16.511V23.772L31.939 27.012L31.934 30.127L25.797 26.173L20.639 29.584L23.784 31.416L25.841 30.055L30.323 33.019L25.269 35.966L20.89 33.399V37.225L25.264 39.789L35.206 33.995L35.213 28.779L40 25.537V14.743L35.213 11.501Z" fill="#AC6AFF"/>
</g>
<path d="M52.5412 10.6364H58.6364L63.8068 23.2443H64.0455L69.2159 10.6364H75.3111V31H70.5185V18.4915H70.3494L65.4574 30.8707H62.3949L57.5028 18.4219H57.3338V31H52.5412V10.6364ZM78.381 31V15.7273H83.2433V31H78.381ZM80.8171 13.9474C80.1344 13.9474 79.5477 13.7221 79.0572 13.2713C78.5666 12.8139 78.3214 12.2637 78.3214 11.6207C78.3214 10.9844 78.5666 10.4408 79.0572 9.99006C79.5477 9.53267 80.1344 9.30398 80.8171 9.30398C81.5065 9.30398 82.0932 9.53267 82.5771 9.99006C83.0676 10.4408 83.3129 10.9844 83.3129 11.6207C83.3129 12.2637 83.0676 12.8139 82.5771 13.2713C82.0932 13.7221 81.5065 13.9474 80.8171 13.9474ZM91.2003 22.2898V31H86.3381V15.7273H90.9616V18.5312H91.1307C91.4688 17.5966 92.0455 16.8641 92.8608 16.3338C93.6761 15.7969 94.6473 15.5284 95.7741 15.5284C96.848 15.5284 97.7794 15.7704 98.5682 16.2543C99.3636 16.7315 99.9801 17.401 100.418 18.2628C100.862 19.1179 101.08 20.1188 101.074 21.2656V31H96.2116V22.2202C96.2183 21.3717 96.0028 20.7088 95.5653 20.2315C95.1345 19.7543 94.5346 19.5156 93.7656 19.5156C93.2552 19.5156 92.8045 19.6283 92.4134 19.8537C92.0289 20.0724 91.7306 20.3873 91.5185 20.7983C91.313 21.2093 91.2069 21.7064 91.2003 22.2898ZM109.662 31.2188C108.535 31.2188 107.511 30.9271 106.59 30.3438C105.668 29.7604 104.933 28.8854 104.382 27.7188C103.832 26.5521 103.557 25.1037 103.557 23.3736C103.557 21.5772 103.842 20.099 104.412 18.9389C104.982 17.7789 105.728 16.9205 106.65 16.3636C107.578 15.8068 108.575 15.5284 109.642 15.5284C110.444 15.5284 111.131 15.6676 111.701 15.946C112.271 16.2178 112.741 16.5691 113.113 17C113.484 17.4309 113.766 17.8783 113.958 18.3423H114.057V10.6364H118.919V31H114.107V28.5241H113.958C113.752 28.9948 113.461 29.4356 113.083 29.8466C112.705 30.2576 112.231 30.589 111.661 30.8409C111.097 31.0928 110.431 31.2188 109.662 31.2188ZM111.353 27.4304C111.943 27.4304 112.446 27.2647 112.864 26.9332C113.282 26.5952 113.603 26.1212 113.828 25.5114C114.054 24.9015 114.167 24.1856 114.167 23.3636C114.167 22.5284 114.054 21.8092 113.828 21.206C113.61 20.6027 113.288 20.1387 112.864 19.8139C112.446 19.4891 111.943 19.3267 111.353 19.3267C110.749 19.3267 110.239 19.4924 109.821 19.8239C109.404 20.1553 109.086 20.6226 108.867 21.2259C108.655 21.8291 108.549 22.5417 108.549 23.3636C108.549 24.1856 108.658 24.9015 108.877 25.5114C109.096 26.1212 109.41 26.5952 109.821 26.9332C110.239 27.2647 110.749 27.4304 111.353 27.4304ZM124.848 31L120.871 15.7273H125.753L127.811 25.5114H127.94L130.148 15.7273H134.911L137.178 25.4418H137.307L139.305 15.7273H144.188L140.2 31H135L132.614 22.1009H132.445L130.058 31H124.848ZM150.444 31.2585C149.47 31.2585 148.605 31.0961 147.849 30.7713C147.1 30.4399 146.507 29.9427 146.069 29.2798C145.638 28.6103 145.423 27.7718 145.423 26.7642C145.423 25.9157 145.572 25.1998 145.87 24.6165C146.169 24.0331 146.58 23.5592 147.103 23.1946C147.627 22.83 148.23 22.5549 148.913 22.3693C149.596 22.1771 150.325 22.0478 151.1 21.9815C151.969 21.902 152.668 21.8191 153.199 21.733C153.729 21.6402 154.113 21.5109 154.352 21.3452C154.597 21.1728 154.72 20.9309 154.72 20.6193V20.5696C154.72 20.0592 154.544 19.6648 154.193 19.3864C153.842 19.108 153.368 18.9688 152.771 18.9688C152.128 18.9688 151.611 19.108 151.22 19.3864C150.829 19.6648 150.58 20.0492 150.474 20.5398L145.99 20.3807C146.122 19.4527 146.464 18.6241 147.014 17.8949C147.571 17.1591 148.333 16.5824 149.301 16.1648C150.275 15.7405 151.445 15.5284 152.811 15.5284C153.785 15.5284 154.683 15.6444 155.505 15.8764C156.327 16.1018 157.043 16.4332 157.653 16.8707C158.263 17.3016 158.734 17.8319 159.065 18.4616C159.403 19.0914 159.572 19.8106 159.572 20.6193V31H154.998V28.8722H154.879C154.607 29.3892 154.259 29.8267 153.835 30.1847C153.417 30.5426 152.923 30.8111 152.353 30.9901C151.79 31.169 151.154 31.2585 150.444 31.2585ZM151.946 28.0767C152.469 28.0767 152.94 27.9706 153.358 27.7585C153.782 27.5464 154.12 27.2547 154.372 26.8835C154.624 26.5057 154.75 26.0682 154.75 25.571V24.1193C154.61 24.1922 154.441 24.2585 154.243 24.3182C154.05 24.3778 153.838 24.4342 153.606 24.4872C153.374 24.5402 153.136 24.5866 152.89 24.6264C152.645 24.6662 152.41 24.7027 152.184 24.7358C151.727 24.8087 151.336 24.9214 151.011 25.0739C150.693 25.2263 150.448 25.4252 150.275 25.6705C150.109 25.9091 150.027 26.1941 150.027 26.5256C150.027 27.0294 150.206 27.4138 150.564 27.679C150.928 27.9441 151.389 28.0767 151.946 28.0767ZM176.814 15.7273L171.574 31H166.005L160.775 15.7273H165.896L168.71 26.2472H168.869L171.693 15.7273H176.814ZM185.325 31.2884C183.727 31.2884 182.349 30.9735 181.189 30.3438C180.035 29.7074 179.147 28.8026 178.524 27.6293C177.907 26.4493 177.599 25.0473 177.599 23.4233C177.599 21.8456 177.911 20.4669 178.534 19.2869C179.157 18.1004 180.035 17.179 181.169 16.5227C182.302 15.8598 183.638 15.5284 185.176 15.5284C186.263 15.5284 187.257 15.6974 188.159 16.0355C189.06 16.3736 189.839 16.8741 190.495 17.5369C191.152 18.1998 191.662 19.0185 192.027 19.9929C192.391 20.9607 192.574 22.071 192.574 23.3239V24.5369H179.299V21.7131H188.049C188.043 21.196 187.92 20.7353 187.681 20.331C187.443 19.9266 187.115 19.6117 186.697 19.3864C186.286 19.1544 185.812 19.0384 185.275 19.0384C184.732 19.0384 184.244 19.161 183.814 19.4062C183.383 19.6449 183.041 19.973 182.789 20.3906C182.538 20.8016 182.405 21.2689 182.392 21.7926V24.6662C182.392 25.2893 182.514 25.8362 182.76 26.3068C183.005 26.7708 183.353 27.1321 183.804 27.3906C184.254 27.6491 184.791 27.7784 185.414 27.7784C185.845 27.7784 186.236 27.7187 186.588 27.5994C186.939 27.4801 187.241 27.3045 187.493 27.0724C187.744 26.8404 187.933 26.5554 188.059 26.2173L192.524 26.3466C192.338 27.3475 191.931 28.2192 191.301 28.9616C190.678 29.6974 189.859 30.2708 188.845 30.6818C187.831 31.0862 186.657 31.2884 185.325 31.2884Z" fill="white"/>
</g>
<defs>
<filter id="filter0_dd_12132_7788" x="-4" y="0" width="48" height="48" filterUnits="userSpaceOnUse" color-interpolation-filters="sRGB">
<feFlood flood-opacity="0" result="BackgroundImageFix"/>
<feColorMatrix in="SourceAlpha" type="matrix" values="0 0 0 0 0 0 0 0 0 0 0 0 0 0 0 0 0 0 127 0" result="hardAlpha"/>
<feOffset dy="4"/>
<feGaussianBlur stdDeviation="2"/>
<feComposite in2="hardAlpha" operator="out"/>
<feColorMatrix type="matrix" values="0 0 0 0 0 0 0 0 0 0 0 0 0 0 0 0 0 0 0.25 0"/>
<feBlend mode="normal" in2="BackgroundImageFix" result="effect1_dropShadow_12132_7788"/>
<feColorMatrix in="SourceAlpha" type="matrix" values="0 0 0 0 0 0 0 0 0 0 0 0 0 0 0 0 0 0 127 0" result="hardAlpha"/>
<feOffset dy="4"/>
<feGaussianBlur stdDeviation="2"/>
<feComposite in2="hardAlpha" operator="out"/>
<feColorMatrix type="matrix" values="0 0 0 0 0 0 0 0 0 0 0 0 0 0 0 0 0 0 0.25 0"/>
<feBlend mode="normal" in2="effect1_dropShadow_12132_7788" result="effect2_dropShadow_12132_7788"/>
<feBlend mode="normal" in="SourceGraphic" in2="effect2_dropShadow_12132_7788" result="shape"/>
</filter>
<clipPath id="clip0_12132_7788">
<rect width="190" height="40" fill="white"/>
</clipPath>
</defs>
</svg>
